<?xml version="1.0" encoding="UTF-8"?>
<svg width="12px" height="12px" viewBox="0 0 12 12" version="1.1" xmlns="http://www.w3.org/2000/svg" xmlns:xlink="http://www.w3.org/1999/xlink">
    <!-- Generator: sketchtool 61.2 (101010) - https://sketch.com -->
    <title>F577C7B6-3B5C-43E2-A50C-0A767CA5D65E</title>
    <desc>Created with sketchtool.</desc>
    <g id="Page-1" stroke="none" stroke-width="1" fill="none" fill-rule="evenodd">
        <g id="Webtrader-Desktop-Dark-V3---Platform-asset-list-bidder" transform="translate(-388.000000, -556.000000)" fill="#27ca5d">
            <g id="LEFT-SIDE---Responsive" transform="translate(0.000000, 78.000000)">
                <g id="Bidder-left-2" transform="translate(0.000000, 345.000000)">
                    <g id="Stacked-Group" transform="translate(10.000000, 72.000000)">
                        <g id="Lots" transform="translate(0.000000, 48.000000)">
                            <g id="Group-2" transform="translate(250.000000, 0.000000)">
                                <g id="UI/Btn/Controller-On">
                                    <g id="Icons/Plus" transform="translate(128.000000, 13.000000)">
                                        <path d="M7,5 L7,1 C7,0.448 6.552,0 6,0 C5.448,0 5,0.448 5,1 L5,5 L1,5 C0.448,5 0,5.448 0,6 C0,6.552 0.448,7 1,7 L5,7 L5,11 C5,11.552 5.448,12 6,12 C6.552,12 7,11.552 7,11 L7,7 L11,7 C11.552,7 12,6.552 12,6 C12,5.448 11.552,5 11,5 L7,5 Z" id="Icons/Add-graph"></path>
                                    </g>
                                </g>
                            </g>
                        </g>
                    </g>
                </g>
            </g>
        </g>
    </g>
</svg>